<svg xmlns="http://www.w3.org/2000/svg" width="178" height="178" viewBox="0 0 178 178">
  <path id="Combined_Shape" data-name="Combined Shape" d="M171.644,174.821A3.178,3.178,0,1,1,174.821,178,3.178,3.178,0,0,1,171.644,174.821Zm-19.072,0A3.179,3.179,0,1,1,155.75,178,3.178,3.178,0,0,1,152.572,174.821Zm-19.071,0A3.178,3.178,0,1,1,136.678,178,3.178,3.178,0,0,1,133.5,174.821Zm-19.072,0A3.179,3.179,0,1,1,117.608,178,3.178,3.178,0,0,1,114.429,174.821Zm-19.071,0A3.178,3.178,0,1,1,98.536,178,3.178,3.178,0,0,1,95.358,174.821Zm-19.072,0A3.179,3.179,0,1,1,79.465,178,3.178,3.178,0,0,1,76.286,174.821Zm-19.071,0A3.178,3.178,0,1,1,60.393,178,3.178,3.178,0,0,1,57.215,174.821Zm-19.072,0A3.179,3.179,0,1,1,41.322,178,3.178,3.178,0,0,1,38.143,174.821Zm-19.071,0A3.178,3.178,0,1,1,22.25,178,3.178,3.178,0,0,1,19.072,174.821ZM0,174.821A3.179,3.179,0,1,1,3.179,178,3.178,3.178,0,0,1,0,174.821ZM171.644,155.75a3.178,3.178,0,1,1,3.178,3.179A3.178,3.178,0,0,1,171.644,155.75Zm-19.072,0a3.179,3.179,0,1,1,3.179,3.179A3.178,3.178,0,0,1,152.572,155.75Zm-19.071,0a3.178,3.178,0,1,1,3.178,3.179A3.178,3.178,0,0,1,133.5,155.75Zm-19.072,0a3.179,3.179,0,1,1,3.179,3.179A3.178,3.178,0,0,1,114.429,155.75Zm-19.071,0a3.178,3.178,0,1,1,3.178,3.179A3.178,3.178,0,0,1,95.358,155.75Zm-19.072,0a3.179,3.179,0,1,1,3.179,3.179A3.178,3.178,0,0,1,76.286,155.75Zm-19.071,0a3.178,3.178,0,1,1,3.178,3.179A3.178,3.178,0,0,1,57.215,155.75Zm-19.072,0a3.179,3.179,0,1,1,3.179,3.179A3.178,3.178,0,0,1,38.143,155.75Zm-19.071,0a3.178,3.178,0,1,1,3.178,3.179A3.178,3.178,0,0,1,19.072,155.75ZM0,155.75a3.179,3.179,0,1,1,3.179,3.179A3.178,3.178,0,0,1,0,155.75Zm171.644-19.072a3.178,3.178,0,1,1,3.178,3.179A3.178,3.178,0,0,1,171.644,136.678Zm-19.072,0a3.179,3.179,0,1,1,3.179,3.179A3.178,3.178,0,0,1,152.572,136.678Zm-19.071,0a3.178,3.178,0,1,1,3.178,3.179A3.178,3.178,0,0,1,133.5,136.678Zm-19.072,0a3.179,3.179,0,1,1,3.179,3.179A3.178,3.178,0,0,1,114.429,136.678Zm-19.071,0a3.178,3.178,0,1,1,3.178,3.179A3.178,3.178,0,0,1,95.358,136.678Zm-19.072,0a3.179,3.179,0,1,1,3.179,3.179A3.178,3.178,0,0,1,76.286,136.678Zm-19.071,0a3.178,3.178,0,1,1,3.178,3.179A3.178,3.178,0,0,1,57.215,136.678Zm-19.072,0a3.179,3.179,0,1,1,3.179,3.179A3.178,3.178,0,0,1,38.143,136.678Zm-19.071,0a3.178,3.178,0,1,1,3.178,3.179A3.178,3.178,0,0,1,19.072,136.678ZM0,136.678a3.179,3.179,0,1,1,3.179,3.179A3.178,3.178,0,0,1,0,136.678Zm171.644-19.071a3.178,3.178,0,1,1,3.178,3.179A3.178,3.178,0,0,1,171.644,117.608Zm-19.072,0a3.179,3.179,0,1,1,3.179,3.179A3.178,3.178,0,0,1,152.572,117.608Zm-19.071,0a3.178,3.178,0,1,1,3.178,3.179A3.178,3.178,0,0,1,133.5,117.608Zm-19.072,0a3.179,3.179,0,1,1,3.179,3.179A3.178,3.178,0,0,1,114.429,117.608Zm-19.071,0a3.178,3.178,0,1,1,3.178,3.179A3.178,3.178,0,0,1,95.358,117.608Zm-19.072,0a3.179,3.179,0,1,1,3.179,3.179A3.178,3.178,0,0,1,76.286,117.608Zm-19.071,0a3.178,3.178,0,1,1,3.178,3.179A3.178,3.178,0,0,1,57.215,117.608Zm-19.072,0a3.179,3.179,0,1,1,3.179,3.179A3.178,3.178,0,0,1,38.143,117.608Zm-19.071,0a3.178,3.178,0,1,1,3.178,3.179A3.178,3.178,0,0,1,19.072,117.608ZM0,117.608a3.179,3.179,0,1,1,3.179,3.179A3.178,3.178,0,0,1,0,117.608ZM171.644,98.536a3.178,3.178,0,1,1,3.178,3.179A3.178,3.178,0,0,1,171.644,98.536Zm-19.072,0a3.179,3.179,0,1,1,3.179,3.179A3.178,3.178,0,0,1,152.572,98.536Zm-19.071,0a3.178,3.178,0,1,1,3.178,3.179A3.178,3.178,0,0,1,133.5,98.536Zm-19.072,0a3.179,3.179,0,1,1,3.179,3.179A3.178,3.178,0,0,1,114.429,98.536Zm-19.071,0a3.178,3.178,0,1,1,3.178,3.179A3.178,3.178,0,0,1,95.358,98.536Zm-19.072,0a3.179,3.179,0,1,1,3.179,3.179A3.178,3.178,0,0,1,76.286,98.536Zm-19.071,0a3.178,3.178,0,1,1,3.178,3.179A3.178,3.178,0,0,1,57.215,98.536Zm-19.072,0a3.179,3.179,0,1,1,3.179,3.179A3.178,3.178,0,0,1,38.143,98.536Zm-19.071,0a3.178,3.178,0,1,1,3.178,3.179A3.178,3.178,0,0,1,19.072,98.536ZM0,98.536a3.179,3.179,0,1,1,3.179,3.179A3.178,3.178,0,0,1,0,98.536ZM171.644,79.465a3.178,3.178,0,1,1,3.178,3.179A3.178,3.178,0,0,1,171.644,79.465Zm-19.072,0a3.179,3.179,0,1,1,3.179,3.179A3.178,3.178,0,0,1,152.572,79.465Zm-19.071,0a3.178,3.178,0,1,1,3.178,3.179A3.178,3.178,0,0,1,133.5,79.465Zm-19.072,0a3.179,3.179,0,1,1,3.179,3.179A3.178,3.178,0,0,1,114.429,79.465Zm-19.071,0a3.178,3.178,0,1,1,3.178,3.179A3.178,3.178,0,0,1,95.358,79.465Zm-19.072,0a3.179,3.179,0,1,1,3.179,3.179A3.178,3.178,0,0,1,76.286,79.465Zm-19.071,0a3.178,3.178,0,1,1,3.178,3.179A3.178,3.178,0,0,1,57.215,79.465Zm-19.072,0a3.179,3.179,0,1,1,3.179,3.179A3.178,3.178,0,0,1,38.143,79.465Zm-19.071,0a3.178,3.178,0,1,1,3.178,3.179A3.178,3.178,0,0,1,19.072,79.465ZM0,79.465a3.179,3.179,0,1,1,3.179,3.179A3.178,3.178,0,0,1,0,79.465ZM171.644,60.393a3.178,3.178,0,1,1,3.178,3.179A3.178,3.178,0,0,1,171.644,60.393Zm-19.072,0a3.179,3.179,0,1,1,3.179,3.179A3.178,3.178,0,0,1,152.572,60.393Zm-19.071,0a3.178,3.178,0,1,1,3.178,3.179A3.178,3.178,0,0,1,133.5,60.393Zm-19.072,0a3.179,3.179,0,1,1,3.179,3.179A3.178,3.178,0,0,1,114.429,60.393Zm-19.071,0a3.178,3.178,0,1,1,3.178,3.179A3.178,3.178,0,0,1,95.358,60.393Zm-19.072,0a3.179,3.179,0,1,1,3.179,3.179A3.178,3.178,0,0,1,76.286,60.393Zm-19.071,0a3.178,3.178,0,1,1,3.178,3.179A3.178,3.178,0,0,1,57.215,60.393Zm-19.072,0a3.179,3.179,0,1,1,3.179,3.179A3.178,3.178,0,0,1,38.143,60.393Zm-19.071,0a3.178,3.178,0,1,1,3.178,3.179A3.178,3.178,0,0,1,19.072,60.393ZM0,60.393a3.179,3.179,0,1,1,3.179,3.179A3.178,3.178,0,0,1,0,60.393ZM171.644,41.322a3.178,3.178,0,1,1,3.178,3.179A3.178,3.178,0,0,1,171.644,41.322Zm-19.072,0A3.179,3.179,0,1,1,155.75,44.5,3.178,3.178,0,0,1,152.572,41.322Zm-19.071,0a3.178,3.178,0,1,1,3.178,3.179A3.178,3.178,0,0,1,133.5,41.322Zm-19.072,0a3.179,3.179,0,1,1,3.179,3.179A3.178,3.178,0,0,1,114.429,41.322Zm-19.071,0A3.178,3.178,0,1,1,98.536,44.5,3.178,3.178,0,0,1,95.358,41.322Zm-19.072,0A3.179,3.179,0,1,1,79.465,44.5,3.178,3.178,0,0,1,76.286,41.322Zm-19.071,0A3.178,3.178,0,1,1,60.393,44.5,3.178,3.178,0,0,1,57.215,41.322Zm-19.072,0A3.179,3.179,0,1,1,41.322,44.5,3.178,3.178,0,0,1,38.143,41.322Zm-19.071,0A3.178,3.178,0,1,1,22.25,44.5,3.178,3.178,0,0,1,19.072,41.322ZM0,41.322A3.179,3.179,0,1,1,3.179,44.5,3.178,3.178,0,0,1,0,41.322ZM171.644,22.25a3.178,3.178,0,1,1,3.178,3.179A3.178,3.178,0,0,1,171.644,22.25Zm-19.072,0a3.179,3.179,0,1,1,3.179,3.179A3.178,3.178,0,0,1,152.572,22.25Zm-19.071,0a3.178,3.178,0,1,1,3.178,3.179A3.178,3.178,0,0,1,133.5,22.25Zm-19.072,0a3.179,3.179,0,1,1,3.179,3.179A3.178,3.178,0,0,1,114.429,22.25Zm-19.071,0a3.178,3.178,0,1,1,3.178,3.179A3.178,3.178,0,0,1,95.358,22.25Zm-19.072,0a3.179,3.179,0,1,1,3.179,3.179A3.178,3.178,0,0,1,76.286,22.25Zm-19.071,0a3.178,3.178,0,1,1,3.178,3.179A3.178,3.178,0,0,1,57.215,22.25Zm-19.072,0a3.179,3.179,0,1,1,3.179,3.179A3.178,3.178,0,0,1,38.143,22.25Zm-19.071,0a3.178,3.178,0,1,1,3.178,3.179A3.178,3.178,0,0,1,19.072,22.25ZM0,22.25a3.179,3.179,0,1,1,3.179,3.179A3.178,3.178,0,0,1,0,22.25ZM171.644,3.179a3.178,3.178,0,1,1,3.178,3.179A3.178,3.178,0,0,1,171.644,3.179Zm-19.072,0a3.179,3.179,0,1,1,3.179,3.179A3.178,3.178,0,0,1,152.572,3.179Zm-19.071,0a3.178,3.178,0,1,1,3.178,3.179A3.178,3.178,0,0,1,133.5,3.179Zm-19.072,0a3.179,3.179,0,1,1,3.179,3.179A3.178,3.178,0,0,1,114.429,3.179Zm-19.071,0a3.178,3.178,0,1,1,3.178,3.179A3.178,3.178,0,0,1,95.358,3.179Zm-19.072,0a3.179,3.179,0,1,1,3.179,3.179A3.178,3.178,0,0,1,76.286,3.179Zm-19.071,0a3.178,3.178,0,1,1,3.178,3.179A3.178,3.178,0,0,1,57.215,3.179Zm-19.072,0a3.179,3.179,0,1,1,3.179,3.179A3.178,3.178,0,0,1,38.143,3.179Zm-19.071,0A3.178,3.178,0,1,1,22.25,6.358,3.178,3.178,0,0,1,19.072,3.179ZM0,3.179A3.179,3.179,0,1,1,3.179,6.358,3.178,3.178,0,0,1,0,3.179Z" fill="#838383"/>
</svg>
