<svg id="dot-shape" xmlns="http://www.w3.org/2000/svg" width="140" height="140" viewBox="0 0 140 140">
  <path id="Combined_Shape" data-name="Combined Shape" d="M135,137.5a2.5,2.5,0,1,1,2.5,2.5A2.5,2.5,0,0,1,135,137.5Zm-15,0a2.5,2.5,0,1,1,2.5,2.5A2.5,2.5,0,0,1,120,137.5Zm-15,0a2.5,2.5,0,1,1,2.5,2.5A2.5,2.5,0,0,1,105,137.5Zm-15,0a2.5,2.5,0,1,1,2.5,2.5A2.5,2.5,0,0,1,90,137.5Zm-15,0a2.5,2.5,0,1,1,2.5,2.5A2.5,2.5,0,0,1,75,137.5Zm-15,0a2.5,2.5,0,1,1,2.5,2.5A2.5,2.5,0,0,1,60,137.5Zm-15,0a2.5,2.5,0,1,1,2.5,2.5A2.5,2.5,0,0,1,45,137.5Zm-15,0a2.5,2.5,0,1,1,2.5,2.5A2.5,2.5,0,0,1,30,137.5Zm-15,0a2.5,2.5,0,1,1,2.5,2.5A2.5,2.5,0,0,1,15,137.5Zm-15,0A2.5,2.5,0,1,1,2.5,140,2.5,2.5,0,0,1,0,137.5Zm135-15a2.5,2.5,0,1,1,2.5,2.5A2.5,2.5,0,0,1,135,122.5Zm-15,0a2.5,2.5,0,1,1,2.5,2.5A2.5,2.5,0,0,1,120,122.5Zm-15,0a2.5,2.5,0,1,1,2.5,2.5A2.5,2.5,0,0,1,105,122.5Zm-15,0a2.5,2.5,0,1,1,2.5,2.5A2.5,2.5,0,0,1,90,122.5Zm-15,0a2.5,2.5,0,1,1,2.5,2.5A2.5,2.5,0,0,1,75,122.5Zm-15,0a2.5,2.5,0,1,1,2.5,2.5A2.5,2.5,0,0,1,60,122.5Zm-15,0a2.5,2.5,0,1,1,2.5,2.5A2.5,2.5,0,0,1,45,122.5Zm-15,0a2.5,2.5,0,1,1,2.5,2.5A2.5,2.5,0,0,1,30,122.5Zm-15,0a2.5,2.5,0,1,1,2.5,2.5A2.5,2.5,0,0,1,15,122.5Zm-15,0A2.5,2.5,0,1,1,2.5,125,2.5,2.5,0,0,1,0,122.5Zm135-15a2.5,2.5,0,1,1,2.5,2.5A2.5,2.5,0,0,1,135,107.5Zm-15,0a2.5,2.5,0,1,1,2.5,2.5A2.5,2.5,0,0,1,120,107.5Zm-15,0a2.5,2.5,0,1,1,2.5,2.5A2.5,2.5,0,0,1,105,107.5Zm-15,0a2.5,2.5,0,1,1,2.5,2.5A2.5,2.5,0,0,1,90,107.5Zm-15,0a2.5,2.5,0,1,1,2.5,2.5A2.5,2.5,0,0,1,75,107.5Zm-15,0a2.5,2.5,0,1,1,2.5,2.5A2.5,2.5,0,0,1,60,107.5Zm-15,0a2.5,2.5,0,1,1,2.5,2.5A2.5,2.5,0,0,1,45,107.5Zm-15,0a2.5,2.5,0,1,1,2.5,2.5A2.5,2.5,0,0,1,30,107.5Zm-15,0a2.5,2.5,0,1,1,2.5,2.5A2.5,2.5,0,0,1,15,107.5Zm-15,0A2.5,2.5,0,1,1,2.5,110,2.5,2.5,0,0,1,0,107.5Zm135-15a2.5,2.5,0,1,1,2.5,2.5A2.5,2.5,0,0,1,135,92.5Zm-15,0a2.5,2.5,0,1,1,2.5,2.5A2.5,2.5,0,0,1,120,92.5Zm-15,0a2.5,2.5,0,1,1,2.5,2.5A2.5,2.5,0,0,1,105,92.5Zm-15,0A2.5,2.5,0,1,1,92.5,95,2.5,2.5,0,0,1,90,92.5Zm-15,0A2.5,2.5,0,1,1,77.5,95,2.5,2.5,0,0,1,75,92.5Zm-15,0A2.5,2.5,0,1,1,62.5,95,2.5,2.5,0,0,1,60,92.5Zm-15,0A2.5,2.5,0,1,1,47.5,95,2.5,2.5,0,0,1,45,92.5Zm-15,0A2.5,2.5,0,1,1,32.5,95,2.5,2.5,0,0,1,30,92.5Zm-15,0A2.5,2.5,0,1,1,17.5,95,2.5,2.5,0,0,1,15,92.5Zm-15,0A2.5,2.5,0,1,1,2.5,95,2.5,2.5,0,0,1,0,92.5Zm135-15a2.5,2.5,0,1,1,2.5,2.5A2.5,2.5,0,0,1,135,77.5Zm-15,0a2.5,2.5,0,1,1,2.5,2.5A2.5,2.5,0,0,1,120,77.5Zm-15,0a2.5,2.5,0,1,1,2.5,2.5A2.5,2.5,0,0,1,105,77.5Zm-15,0A2.5,2.5,0,1,1,92.5,80,2.5,2.5,0,0,1,90,77.5Zm-15,0A2.5,2.5,0,1,1,77.5,80,2.5,2.5,0,0,1,75,77.5Zm-15,0A2.5,2.5,0,1,1,62.5,80,2.5,2.5,0,0,1,60,77.5Zm-15,0A2.5,2.5,0,1,1,47.5,80,2.5,2.5,0,0,1,45,77.5Zm-15,0A2.5,2.5,0,1,1,32.5,80,2.5,2.5,0,0,1,30,77.5Zm-15,0A2.5,2.5,0,1,1,17.5,80,2.5,2.5,0,0,1,15,77.5Zm-15,0A2.5,2.5,0,1,1,2.5,80,2.5,2.5,0,0,1,0,77.5Zm135-15a2.5,2.5,0,1,1,2.5,2.5A2.5,2.5,0,0,1,135,62.5Zm-15,0a2.5,2.5,0,1,1,2.5,2.5A2.5,2.5,0,0,1,120,62.5Zm-15,0a2.5,2.5,0,1,1,2.5,2.5A2.5,2.5,0,0,1,105,62.5Zm-15,0A2.5,2.5,0,1,1,92.5,65,2.5,2.5,0,0,1,90,62.5Zm-15,0A2.5,2.5,0,1,1,77.5,65,2.5,2.5,0,0,1,75,62.5Zm-15,0A2.5,2.5,0,1,1,62.5,65,2.5,2.5,0,0,1,60,62.5Zm-15,0A2.5,2.5,0,1,1,47.5,65,2.5,2.5,0,0,1,45,62.5Zm-15,0A2.5,2.5,0,1,1,32.5,65,2.5,2.5,0,0,1,30,62.5Zm-15,0A2.5,2.5,0,1,1,17.5,65,2.5,2.5,0,0,1,15,62.5Zm-15,0A2.5,2.5,0,1,1,2.5,65,2.5,2.5,0,0,1,0,62.5Zm135-15a2.5,2.5,0,1,1,2.5,2.5A2.5,2.5,0,0,1,135,47.5Zm-15,0a2.5,2.5,0,1,1,2.5,2.5A2.5,2.5,0,0,1,120,47.5Zm-15,0a2.5,2.5,0,1,1,2.5,2.5A2.5,2.5,0,0,1,105,47.5Zm-15,0A2.5,2.5,0,1,1,92.5,50,2.5,2.5,0,0,1,90,47.5Zm-15,0A2.5,2.5,0,1,1,77.5,50,2.5,2.5,0,0,1,75,47.5Zm-15,0A2.5,2.5,0,1,1,62.5,50,2.5,2.5,0,0,1,60,47.5Zm-15,0A2.5,2.5,0,1,1,47.5,50,2.5,2.5,0,0,1,45,47.5Zm-15,0A2.5,2.5,0,1,1,32.5,50,2.5,2.5,0,0,1,30,47.5Zm-15,0A2.5,2.5,0,1,1,17.5,50,2.5,2.5,0,0,1,15,47.5Zm-15,0A2.5,2.5,0,1,1,2.5,50,2.5,2.5,0,0,1,0,47.5Zm135-15a2.5,2.5,0,1,1,2.5,2.5A2.5,2.5,0,0,1,135,32.5Zm-15,0a2.5,2.5,0,1,1,2.5,2.5A2.5,2.5,0,0,1,120,32.5Zm-15,0a2.5,2.5,0,1,1,2.5,2.5A2.5,2.5,0,0,1,105,32.5Zm-15,0A2.5,2.5,0,1,1,92.5,35,2.5,2.5,0,0,1,90,32.5Zm-15,0A2.5,2.5,0,1,1,77.5,35,2.5,2.5,0,0,1,75,32.5Zm-15,0A2.5,2.5,0,1,1,62.5,35,2.5,2.5,0,0,1,60,32.5Zm-15,0A2.5,2.5,0,1,1,47.5,35,2.5,2.5,0,0,1,45,32.5Zm-15,0A2.5,2.5,0,1,1,32.5,35,2.5,2.5,0,0,1,30,32.5Zm-15,0A2.5,2.5,0,1,1,17.5,35,2.5,2.5,0,0,1,15,32.5Zm-15,0A2.5,2.5,0,1,1,2.5,35,2.5,2.5,0,0,1,0,32.5Zm135-15a2.5,2.5,0,1,1,2.5,2.5A2.5,2.5,0,0,1,135,17.5Zm-15,0a2.5,2.5,0,1,1,2.5,2.5A2.5,2.5,0,0,1,120,17.5Zm-15,0a2.5,2.5,0,1,1,2.5,2.5A2.5,2.5,0,0,1,105,17.5Zm-15,0A2.5,2.5,0,1,1,92.5,20,2.5,2.5,0,0,1,90,17.5Zm-15,0A2.5,2.5,0,1,1,77.5,20,2.5,2.5,0,0,1,75,17.5Zm-15,0A2.5,2.5,0,1,1,62.5,20,2.5,2.5,0,0,1,60,17.5Zm-15,0A2.5,2.5,0,1,1,47.5,20,2.5,2.5,0,0,1,45,17.5Zm-15,0A2.5,2.5,0,1,1,32.5,20,2.5,2.5,0,0,1,30,17.5Zm-15,0A2.5,2.5,0,1,1,17.5,20,2.5,2.5,0,0,1,15,17.5Zm-15,0A2.5,2.5,0,1,1,2.5,20,2.5,2.5,0,0,1,0,17.5Zm135-15A2.5,2.5,0,1,1,137.5,5,2.5,2.5,0,0,1,135,2.5Zm-15,0A2.5,2.5,0,1,1,122.5,5,2.5,2.5,0,0,1,120,2.5Zm-15,0A2.5,2.5,0,1,1,107.5,5,2.5,2.5,0,0,1,105,2.5Zm-15,0A2.5,2.5,0,1,1,92.5,5,2.5,2.5,0,0,1,90,2.5Zm-15,0A2.5,2.5,0,1,1,77.5,5,2.5,2.5,0,0,1,75,2.5Zm-15,0A2.5,2.5,0,1,1,62.5,5,2.5,2.5,0,0,1,60,2.5Zm-15,0A2.5,2.5,0,1,1,47.5,5,2.5,2.5,0,0,1,45,2.5Zm-15,0A2.5,2.5,0,1,1,32.5,5,2.5,2.5,0,0,1,30,2.5Zm-15,0A2.5,2.5,0,1,1,17.5,5,2.5,2.5,0,0,1,15,2.5ZM0,2.5A2.5,2.5,0,1,1,2.5,5,2.5,2.5,0,0,1,0,2.5Z" fill="#008ccf"/>
</svg>
