<svg xmlns="http://www.w3.org/2000/svg" width="288.849" height="104.204" viewBox="0 0 288.849 104.204">
  <g id="Group_20" data-name="Group 20" transform="translate(0 0)">
    <g id="Group_16" data-name="Group 16" transform="translate(0 0)">
      <g id="Group_14" data-name="Group 14" transform="translate(67.158 21.334)">
        <g id="Group_12" data-name="Group 12" transform="translate(69.201 0.679)">
          <g id="Group_11" data-name="Group 11">
            <path id="Path_29" data-name="Path 29" d="M1726.777,278.838a6.467,6.467,0,0,1,0,9.21,6.539,6.539,0,0,1-9.24,0,6.466,6.466,0,0,1,0-9.21,6.633,6.633,0,0,1,9.24,0Z" transform="translate(-1715.61 -276.965)" fill="#e20060" fill-rule="evenodd"/>
          </g>
        </g>
        <g id="Group_13" data-name="Group 13">
          <path id="Path_30" data-name="Path 30" d="M890.352,349.878l6.23-34.058h12.981l-11.526,54.313H884.458l-7.274-30.961-7.125,30.961H856.518L844.954,315.82h13.019l6.23,34.058,7.46-34.058h11.116Z" transform="translate(-844.954 -312.052)" fill="#fff"/>
          <path id="Path_31" data-name="Path 31" d="M1735.677,531.712h-12.609V491.35h12.609Z" transform="translate(-1653.275 -473.631)" fill="#fff"/>
          <path id="Path_32" data-name="Path 32" d="M1974.518,511.73a2.905,2.905,0,0,0-1.679-2.574,25.552,25.552,0,0,0-6.379-2.014,29.054,29.054,0,0,1-7.759-2.742,12.988,12.988,0,0,1-4.663-4.122,9.841,9.841,0,0,1-1.6-5.558,11.157,11.157,0,0,1,4.588-9.158q4.588-3.6,12.011-3.6,7.982,0,12.832,3.618a11.317,11.317,0,0,1,4.849,9.512h-12.608q0-4.849-5.111-4.849a5.067,5.067,0,0,0-3.32,1.1,3.407,3.407,0,0,0-1.343,2.742,3.126,3.126,0,0,0,1.641,2.723,15.5,15.5,0,0,0,5.241,1.716,45.358,45.358,0,0,1,6.323,1.6q9.1,3.133,9.1,11.228a10.572,10.572,0,0,1-4.906,8.99q-4.905,3.469-12.7,3.469a21.952,21.952,0,0,1-9.251-1.865,15.462,15.462,0,0,1-6.342-5.073,11.486,11.486,0,0,1-2.275-6.752h11.75a4.858,4.858,0,0,0,1.865,4.085,7.673,7.673,0,0,0,4.589,1.287,6.032,6.032,0,0,0,3.86-1.044A3.34,3.34,0,0,0,1974.518,511.73Z" transform="translate(-1863.243 -464.989)" fill="#fff"/>
          <path id="Path_33" data-name="Path 33" d="M2451.467,502.516a23.822,23.822,0,0,1,2.351-10.762,16.8,16.8,0,0,1,6.752-7.255,20.334,20.334,0,0,1,10.333-2.537q9.064,0,14.287,5.614t5.222,15.276v.448q0,9.438-5.241,14.977t-14.193,5.539q-8.617,0-13.839-5.167t-5.633-14.007Zm12.571.783q0,5.6,1.753,8.207a5.84,5.84,0,0,0,5.185,2.611q6.714,0,6.864-10.333v-1.268q0-10.855-6.938-10.855-6.305,0-6.827,9.363Z" transform="translate(-2323.779 -464.989)" fill="#fff"/>
          <path id="Path_34" data-name="Path 34" d="M2978.277,326.5V294.866h-5.857v-8.729h5.857v-3.208q0-6.9,4.065-10.706t11.415-3.8a25.006,25.006,0,0,1,5.894.783l.037,9.251a11.481,11.481,0,0,0-3.1-.336q-5.708,0-5.708,4.924v3.1h7.871v8.729h-7.871V326.5Z" transform="translate(-2803.326 -268.418)" fill="#fff"/>
          <path id="Path_35" data-name="Path 35" d="M3338.382,365.1v10.035h6.64v8.729h-6.64v18.465a4.713,4.713,0,0,0,.82,3.171q.82.9,3.246.9a18.46,18.46,0,0,0,3.133-.224v8.99a23.213,23.213,0,0,1-7.088,1.082q-6.49,0-9.586-3.059t-3.1-9.288V383.862h-5.148v-8.729h5.148V365.1Z" transform="translate(-3123.891 -357.415)" fill="#fff"/>
        </g>
      </g>
      <g id="Group_15" data-name="Group 15" transform="translate(0 0)">
        <path id="Path_36" data-name="Path 36" d="M462.481,355.886a7.666,7.666,0,0,1,0,10.731,7.4,7.4,0,0,1-10.639,0,35.284,35.284,0,0,1-.065-49.664,7.471,7.471,0,0,1,10.7,0,7.546,7.546,0,0,1,0,10.73,20.228,20.228,0,0,0-5.773,14.134,19.963,19.963,0,0,0,5.773,14.068Z" transform="translate(-406.495 -289.683)" fill="#008ccf"/>
        <path id="Path_37" data-name="Path 37" d="M151.028,381.678a7.749,7.749,0,0,1-1.752,10.667,7.522,7.522,0,0,1-10.511-1.767,49.975,49.975,0,0,1-7.979-17.079,48.512,48.512,0,0,1,1.039-27.22,46.479,46.479,0,0,1,16.932-22.639,55.9,55.9,0,0,1,19.071-8.835,7.556,7.556,0,0,1,9.213,5.563,7.7,7.7,0,0,1-5.514,9.226,41.093,41.093,0,0,0-13.949,6.347,31.073,31.073,0,0,0-11.416,15.311,32.671,32.671,0,0,0-.715,18.518,34.4,34.4,0,0,0,5.581,11.908Z" transform="translate(-119.042 -289.564)" fill="#e86c13"/>
        <path id="Path_38" data-name="Path 38" d="M456.394,314.936l.389-.132A7.556,7.556,0,0,1,466,320.367a7.7,7.7,0,0,1-5.514,9.226,41.094,41.094,0,0,0-13.949,6.347,23.252,23.252,0,0,0-3.308,2.747,35,35,0,0,1,10.055-21.854,7.066,7.066,0,0,1,3.113-1.9Z" transform="translate(-407.997 -289.564)" fill="#144d2f"/>
        <path id="Path_39" data-name="Path 39" d="M31.205,91.2a7.75,7.75,0,0,1,0,10.8,7.588,7.588,0,0,1-10.7,0,70.961,70.961,0,0,1,0-99.786,7.586,7.586,0,0,1,10.7,0,7.748,7.748,0,0,1,0,10.8,55.553,55.553,0,0,0,0,78.195Z" transform="translate(0 0)" fill="#a4bf23"/>
        <path id="Path_40" data-name="Path 40" d="M150.247,683.638c.13.131.259.326.389.457l.391.458a7.749,7.749,0,0,1-1.752,10.667,7.522,7.522,0,0,1-10.511-1.767,49.976,49.976,0,0,1-7.979-17.079,48.512,48.512,0,0,1,1.039-27.22,41.926,41.926,0,0,1,2.336-5.562v.981a55.353,55.353,0,0,0,16.088,39.064Z" transform="translate(-119.042 -592.438)" fill="#9a611c"/>
      </g>
    </g>
    <g id="Group_19" data-name="Group 19" transform="translate(166.834 89.97)">
      <g id="Group_17" data-name="Group 17" transform="translate(114.214 0.113)">
        <path id="Rectangle_4" data-name="Rectangle 4" d="M.124,0H.859A.124.124,0,0,1,.982.124V7.965a0,0,0,0,1,0,0H0a0,0,0,0,1,0,0V.124A.124.124,0,0,1,.124,0Z" fill="#fff"/>
        <path id="Rectangle_5" data-name="Rectangle 5" d="M.124,0H.859A.124.124,0,0,1,.982.124V3.983a0,0,0,0,1,0,0H0a0,0,0,0,1,0,0V.124A.124.124,0,0,1,.124,0Z" transform="translate(3.411 3.983)" fill="#fff"/>
        <path id="Rectangle_6" data-name="Rectangle 6" d="M.124,0H.859A.124.124,0,0,1,.982.124V1.991a0,0,0,0,1,0,0H0a0,0,0,0,1,0,0V.124A.124.124,0,0,1,.124,0Z" transform="translate(6.819 5.974)" fill="#fff"/>
      </g>
      <g id="Group_18" data-name="Group 18">
        <path id="Path_41" data-name="Path 41" d="M2099.938,1133.379v7.97h-.9v-7.97Z" transform="translate(-2099.037 -1133.266)" fill="#fff"/>
        <path id="Path_42" data-name="Path 42" d="M2139.223,1138.932a3.643,3.643,0,0,1-.869,1.269,4.127,4.127,0,0,1-1.343.842,4.613,4.613,0,0,1-1.715.307h-2.767v-7.97h2.767a4.7,4.7,0,0,1,1.715.3,4.062,4.062,0,0,1,1.343.838,3.65,3.65,0,0,1,.869,1.261,4.151,4.151,0,0,1,0,3.151Zm-.857-2.8a2.941,2.941,0,0,0-1.7-1.676,3.655,3.655,0,0,0-1.366-.244h-1.867v6.306h1.867a3.74,3.74,0,0,0,1.366-.24,3.006,3.006,0,0,0,1.044-.664,3.042,3.042,0,0,0,.66-1,3.246,3.246,0,0,0,.233-1.242A3.317,3.317,0,0,0,2138.365,1136.134Z" transform="translate(-2129.867 -1133.266)" fill="#fff"/>
        <path id="Path_43" data-name="Path 43" d="M2243.113,1134.2h-4.862v2.72h4.35v.819h-4.35v2.79h4.921v.819h-5.821v-7.97h5.762Z" transform="translate(-2226.357 -1133.266)" fill="#fff"/>
        <path id="Path_44" data-name="Path 44" d="M2325.671,1140.72h-.966l-.935-2.107h-4.334l-.947,2.107h-.923l3.632-8.025h.842Zm-4.063-6.965-1.824,4.063h3.632Z" transform="translate(-2300.196 -1132.637)" fill="#fff"/>
        <path id="Path_45" data-name="Path 45" d="M2427.006,1134.575a.991.991,0,0,0,.33.415,2.418,2.418,0,0,0,.66.341,8.347,8.347,0,0,0,1.083.291,4.715,4.715,0,0,1,1.963.819,1.8,1.8,0,0,1,.632,1.451,2.187,2.187,0,0,1-.2.935,2.152,2.152,0,0,1-.559.718,2.47,2.47,0,0,1-.857.454,3.513,3.513,0,0,1-1.094.159,4.774,4.774,0,0,1-1.747-.307,4.985,4.985,0,0,1-1.509-.955l.559-.66a4.767,4.767,0,0,0,1.265.846,3.607,3.607,0,0,0,1.467.28,2.039,2.039,0,0,0,1.292-.376,1.2,1.2,0,0,0,.485-.993,1.287,1.287,0,0,0-.093-.5,1.006,1.006,0,0,0-.318-.407,2.38,2.38,0,0,0-.632-.33,8.08,8.08,0,0,0-1.033-.283,8.85,8.85,0,0,1-1.195-.342,3.062,3.062,0,0,1-.838-.469,1.7,1.7,0,0,1-.489-.636,2.137,2.137,0,0,1-.159-.869,1.952,1.952,0,0,1,.194-.877,2.037,2.037,0,0,1,.543-.691,2.638,2.638,0,0,1,.83-.454,3.164,3.164,0,0,1,1.048-.167,4.471,4.471,0,0,1,1.532.241,4.778,4.778,0,0,1,1.269.726l-.524.695a3.894,3.894,0,0,0-1.121-.66,3.439,3.439,0,0,0-1.176-.206,2.2,2.2,0,0,0-.7.1,1.826,1.826,0,0,0-.536.272,1.229,1.229,0,0,0-.342.411,1.154,1.154,0,0,0-.12.512A1.366,1.366,0,0,0,2427.006,1134.575Z" transform="translate(-2399.742 -1131.963)" fill="#fff"/>
        <path id="Path_46" data-name="Path 46" d="M2548.944,1141.349h-.9v-7.136h-2.674v-.834h6.248v.834h-2.673Z" transform="translate(-2509.895 -1133.266)" fill="#fff"/>
        <path id="Path_47" data-name="Path 47" d="M2639.032,1137.764v3.585h-.9v-7.97h.9v3.543h4.6v-3.543h.9v7.97h-.9v-3.585Z" transform="translate(-2595.284 -1133.266)" fill="#fff"/>
        <path id="Path_48" data-name="Path 48" d="M2739.343,1140.72h-.966l-.936-2.107h-4.334l-.947,2.107h-.924l3.632-8.025h.842Zm-4.063-6.965-1.824,4.063h3.632Z" transform="translate(-2680.988 -1132.637)" fill="#fff"/>
        <path id="Path_49" data-name="Path 49" d="M2842.268,1141.349h-.9v-7.136h-2.674v-.834h6.248v.834h-2.673Z" transform="translate(-2779.905 -1133.266)" fill="#fff"/>
        <path id="Path_50" data-name="Path 50" d="M2969.169,1133.379v7.97h-.9v-7.97Z" transform="translate(-2899.181 -1133.266)" fill="#fff"/>
        <path id="Path_51" data-name="Path 51" d="M3007.624,1133.379h.877v7.97h-.718l-5.146-6.535v6.535h-.877v-7.97h.846l5.018,6.387Z" transform="translate(-2930.011 -1133.266)" fill="#fff"/>
        <path id="Path_52" data-name="Path 52" d="M3102.609,1134.575a.994.994,0,0,0,.33.415,2.414,2.414,0,0,0,.66.341,8.327,8.327,0,0,0,1.082.291,4.709,4.709,0,0,1,1.964.819,1.8,1.8,0,0,1,.633,1.451,2.188,2.188,0,0,1-.2.935,2.146,2.146,0,0,1-.559.718,2.47,2.47,0,0,1-.857.454,3.513,3.513,0,0,1-1.094.159,4.773,4.773,0,0,1-1.746-.307,4.973,4.973,0,0,1-1.509-.955l.559-.66a4.774,4.774,0,0,0,1.265.846,3.608,3.608,0,0,0,1.467.28,2.038,2.038,0,0,0,1.292-.376,1.2,1.2,0,0,0,.485-.993,1.287,1.287,0,0,0-.093-.5,1.006,1.006,0,0,0-.318-.407,2.372,2.372,0,0,0-.632-.33,8.093,8.093,0,0,0-1.032-.283,8.838,8.838,0,0,1-1.2-.342,3.07,3.07,0,0,1-.838-.469,1.7,1.7,0,0,1-.488-.636,2.128,2.128,0,0,1-.16-.869,1.952,1.952,0,0,1,.194-.877,2.036,2.036,0,0,1,.543-.691,2.641,2.641,0,0,1,.831-.454,3.159,3.159,0,0,1,1.048-.167,4.476,4.476,0,0,1,1.533.241,4.793,4.793,0,0,1,1.269.726l-.524.695a3.889,3.889,0,0,0-1.122-.66,3.437,3.437,0,0,0-1.176-.206,2.2,2.2,0,0,0-.7.1,1.826,1.826,0,0,0-.536.272,1.227,1.227,0,0,0-.341.411,1.148,1.148,0,0,0-.121.512A1.375,1.375,0,0,0,3102.609,1134.575Z" transform="translate(-3021.648 -1131.963)" fill="#fff"/>
        <path id="Path_53" data-name="Path 53" d="M3197.981,1137.058a2.4,2.4,0,0,1-.675.819,2.927,2.927,0,0,1-1,.5,4.371,4.371,0,0,1-1.207.163h-1.936v2.813h-.9v-7.97h2.984a4.031,4.031,0,0,1,1.222.178,2.8,2.8,0,0,1,.947.5,2.186,2.186,0,0,1,.6.8,2.566,2.566,0,0,1,.213,1.067A2.465,2.465,0,0,1,3197.981,1137.058Zm-1.238-2.406a2.52,2.52,0,0,0-1.556-.438h-2.021v3.5h1.975a3.1,3.1,0,0,0,.9-.124,2.027,2.027,0,0,0,.695-.361,1.565,1.565,0,0,0,.446-.555,1.64,1.64,0,0,0,.155-.726A1.519,1.519,0,0,0,3196.743,1134.652Z" transform="translate(-3105.374 -1133.266)" fill="#fff"/>
        <path id="Path_54" data-name="Path 54" d="M3282.706,1133.379v7.97h-.9v-7.97Z" transform="translate(-3187.797 -1133.266)" fill="#fff"/>
        <path id="Path_55" data-name="Path 55" d="M3320.784,1141.349l-2.309-3.1H3316.2v3.1h-.9v-7.97h3.426a3.912,3.912,0,0,1,1.191.171,2.689,2.689,0,0,1,.9.485,2.154,2.154,0,0,1,.582.752,2.283,2.283,0,0,1,.206.974,2.373,2.373,0,0,1-.159.893,2.02,2.02,0,0,1-.45.683,2.49,2.49,0,0,1-.691.485,3.28,3.28,0,0,1-.865.276l2.448,3.252Zm-.613-6.721a2.4,2.4,0,0,0-1.51-.415H3316.2v3.244h2.457a2.747,2.747,0,0,0,.819-.116,1.9,1.9,0,0,0,.652-.326,1.458,1.458,0,0,0,.427-.52,1.5,1.5,0,0,0,.155-.695A1.4,1.4,0,0,0,3320.171,1134.629Z" transform="translate(-3218.627 -1133.266)" fill="#fff"/>
        <path id="Path_56" data-name="Path 56" d="M3417.484,1134.2h-4.862v2.72h4.35v.819h-4.35v2.79h4.92v.819h-5.82v-7.97h5.763Z" transform="translate(-3307.387 -1133.266)" fill="#fff"/>
      </g>
    </g>
  </g>
</svg>
