<svg xmlns="http://www.w3.org/2000/svg" width="251.647" height="90.783" viewBox="0 0 251.647 90.783">
  <g id="Group_21" data-name="Group 21" transform="translate(-197 40)">
    <g id="Group_10" data-name="Group 10" transform="translate(197 -40)">
      <g id="Group_6" data-name="Group 6" transform="translate(0 0)">
        <g id="Group_4" data-name="Group 4" transform="translate(58.508 18.586)">
          <g id="Group_2" data-name="Group 2" transform="translate(60.288 0.592)">
            <g id="Group_1" data-name="Group 1">
              <path id="Path_1" data-name="Path 1" d="M1616.258,260.987a5.634,5.634,0,0,1,0,8.023,5.7,5.7,0,0,1-8.05,0,5.634,5.634,0,0,1,0-8.023,5.779,5.779,0,0,1,8.05,0Z" transform="translate(-1606.53 -259.355)" fill="#e20060" fill-rule="evenodd"/>
            </g>
          </g>
          <g id="Group_3" data-name="Group 3">
            <path id="Path_2" data-name="Path 2" d="M830.782,325.41l5.427-29.671h11.309l-10.042,47.318h-11.83l-6.337-26.974L813.1,343.057h-11.8l-10.074-47.318h11.342L808,325.41l6.5-29.671h9.685Z" transform="translate(-791.231 -292.457)" fill="#00378d"/>
            <path id="Path_3" data-name="Path 3" d="M1624.5,495.272h-10.985V460.109H1624.5Z" transform="translate(-1552.71 -444.672)" fill="#00378d"/>
            <path id="Path_4" data-name="Path 4" d="M1847.453,477.252a2.531,2.531,0,0,0-1.462-2.242,22.258,22.258,0,0,0-5.557-1.755,25.313,25.313,0,0,1-6.76-2.389,11.316,11.316,0,0,1-4.062-3.591,8.573,8.573,0,0,1-1.4-4.842,9.719,9.719,0,0,1,4-7.978q4-3.136,10.464-3.136,6.954,0,11.179,3.152a9.859,9.859,0,0,1,4.225,8.287H1847.1q0-4.224-4.452-4.225a4.417,4.417,0,0,0-2.893.959,2.969,2.969,0,0,0-1.169,2.389,2.723,2.723,0,0,0,1.43,2.372,13.5,13.5,0,0,0,4.566,1.495,39.526,39.526,0,0,1,5.508,1.4q7.929,2.73,7.93,9.782a9.211,9.211,0,0,1-4.273,7.832q-4.274,3.022-11.066,3.022a19.124,19.124,0,0,1-8.059-1.625,13.467,13.467,0,0,1-5.525-4.42,10.006,10.006,0,0,1-1.982-5.882h10.237a4.233,4.233,0,0,0,1.625,3.559,6.685,6.685,0,0,0,4,1.121,5.257,5.257,0,0,0,3.364-.91A2.91,2.91,0,0,0,1847.453,477.252Z" transform="translate(-1750.51 -436.531)" fill="#00378d"/>
            <path id="Path_5" data-name="Path 5" d="M2295.6,469.225a20.758,20.758,0,0,1,2.047-9.376,14.642,14.642,0,0,1,5.882-6.321,17.716,17.716,0,0,1,9-2.21q7.9,0,12.448,4.891t4.549,13.308v.39q0,8.222-4.566,13.048t-12.366,4.826q-7.507,0-12.057-4.5t-4.907-12.2Zm10.952.682q0,4.875,1.527,7.15a5.088,5.088,0,0,0,4.518,2.275q5.849,0,5.98-9v-1.1q0-9.457-6.045-9.457-5.492,0-5.947,8.157Z" transform="translate(-2184.357 -436.531)" fill="#00378d"/>
            <path id="Path_6" data-name="Path 6" d="M2788.533,301.952V274.393h-5.1v-7.6h5.1v-2.795q0-6.012,3.542-9.327t9.944-3.315a21.782,21.782,0,0,1,5.135.682l.032,8.06a10.013,10.013,0,0,0-2.7-.292q-4.972,0-4.972,4.29v2.7h6.857v7.6h-6.857v27.559Z" transform="translate(-2636.115 -251.352)" fill="#00378d"/>
            <path id="Path_7" data-name="Path 7" d="M3124.969,341.886v8.742h5.785v7.6h-5.785V374.32a4.108,4.108,0,0,0,.715,2.762,3.835,3.835,0,0,0,2.828.78,16.081,16.081,0,0,0,2.729-.2V385.5a20.22,20.22,0,0,1-6.175.942q-5.654,0-8.352-2.665t-2.7-8.092V358.233h-4.484v-7.6h4.484v-8.742Z" transform="translate(-2938.103 -335.191)" fill="#00378d"/>
          </g>
        </g>
        <g id="Group_5" data-name="Group 5">
          <path id="Path_8" data-name="Path 8" d="M431.714,330.572a6.679,6.679,0,0,1,0,9.349,6.444,6.444,0,0,1-9.268,0,30.739,30.739,0,0,1-.056-43.267,6.509,6.509,0,0,1,9.325,0,6.574,6.574,0,0,1,0,9.348,17.623,17.623,0,0,0-5.029,12.314,17.391,17.391,0,0,0,5.029,12.256Z" transform="translate(-382.938 -272.896)" fill="#008ccf"/>
          <path id="Path_9" data-name="Path 9" d="M140.01,353.034a6.751,6.751,0,0,1-1.527,9.293,6.553,6.553,0,0,1-9.157-1.539,43.538,43.538,0,0,1-6.951-14.879,42.263,42.263,0,0,1,.905-23.714,40.493,40.493,0,0,1,14.751-19.724,48.7,48.7,0,0,1,16.615-7.7,6.583,6.583,0,0,1,8.026,4.846,6.7,6.7,0,0,1-4.8,8.038,35.8,35.8,0,0,0-12.152,5.53,27.071,27.071,0,0,0-9.946,13.339,28.463,28.463,0,0,0-.623,16.133,29.965,29.965,0,0,0,4.862,10.374Z" transform="translate(-112.144 -272.783)" fill="#e86c13"/>
          <path id="Path_10" data-name="Path 10" d="M426.517,294.888l.339-.115a6.583,6.583,0,0,1,8.026,4.846,6.7,6.7,0,0,1-4.8,8.038,35.8,35.8,0,0,0-12.152,5.53,20.258,20.258,0,0,0-2.882,2.393,30.49,30.49,0,0,1,8.76-19.039,6.156,6.156,0,0,1,2.712-1.653Z" transform="translate(-384.353 -272.783)" fill="#144d2f"/>
          <path id="Path_11" data-name="Path 11" d="M27.186,79.454a6.751,6.751,0,0,1,0,9.406,6.611,6.611,0,0,1-9.325,0,61.822,61.822,0,0,1,0-86.934,6.609,6.609,0,0,1,9.325,0,6.75,6.75,0,0,1,0,9.4,48.4,48.4,0,0,0,0,68.124Z" transform="translate(0 0)" fill="#a4bf23"/>
          <path id="Path_12" data-name="Path 12" d="M139.33,637.56c.113.114.226.284.339.4l.341.4a6.751,6.751,0,0,1-1.527,9.293,6.553,6.553,0,0,1-9.157-1.539,43.538,43.538,0,0,1-6.951-14.879,42.263,42.263,0,0,1,.905-23.714,36.522,36.522,0,0,1,2.035-4.846v.855A48.224,48.224,0,0,0,139.33,637.56Z" transform="translate(-112.144 -558.107)" fill="#9a611c"/>
        </g>
      </g>
      <g id="Group_9" data-name="Group 9" transform="translate(145.347 78.383)">
        <g id="Group_7" data-name="Group 7" transform="translate(99.504 0.099)">
          <path id="Rectangle_1" data-name="Rectangle 1" d="M.124,0H.732A.124.124,0,0,1,.856.124V6.939a0,0,0,0,1,0,0H0a0,0,0,0,1,0,0V.124A.124.124,0,0,1,.124,0Z" fill="#008ccf"/>
          <path id="Rectangle_2" data-name="Rectangle 2" d="M.124,0H.732A.124.124,0,0,1,.856.124V3.47a0,0,0,0,1,0,0H0a0,0,0,0,1,0,0V.124A.124.124,0,0,1,.124,0Z" transform="translate(2.972 3.47)" fill="#e86c13"/>
          <path id="Rectangle_3" data-name="Rectangle 3" d="M.124,0H.732A.124.124,0,0,1,.856.124V1.735a0,0,0,0,1,0,0H0a0,0,0,0,1,0,0V.124A.124.124,0,0,1,.124,0Z" transform="translate(5.941 5.204)" fill="#a4bf23"/>
        </g>
        <g id="Group_8" data-name="Group 8">
          <path id="Path_13" data-name="Path 13" d="M1966.362,1061.317v6.944h-.784v-6.944Z" transform="translate(-1965.578 -1061.219)" fill="#e20060"/>
          <path id="Path_14" data-name="Path 14" d="M2002.772,1066.155a3.179,3.179,0,0,1-.757,1.105,3.6,3.6,0,0,1-1.17.734,4.027,4.027,0,0,1-1.494.267h-2.41v-6.944h2.41a4.1,4.1,0,0,1,1.494.264,3.54,3.54,0,0,1,1.17.73,3.186,3.186,0,0,1,.757,1.1,3.621,3.621,0,0,1,0,2.745Zm-.747-2.437a2.61,2.61,0,0,0-.574-.876,2.637,2.637,0,0,0-.909-.585,3.191,3.191,0,0,0-1.19-.213h-1.626v5.494h1.626a3.253,3.253,0,0,0,1.19-.21,2.62,2.62,0,0,0,.909-.578,2.648,2.648,0,0,0,.574-.869,2.821,2.821,0,0,0,.2-1.082A2.885,2.885,0,0,0,2002.024,1063.717Z" transform="translate(-1994.621 -1061.219)" fill="#e20060"/>
          <path id="Path_15" data-name="Path 15" d="M2100.117,1062.034h-4.236v2.37h3.79v.713h-3.79v2.431h4.287v.713H2095.1v-6.944h5.02Z" transform="translate(-2085.52 -1061.219)" fill="#e20060"/>
          <path id="Path_16" data-name="Path 16" d="M2177.274,1067.668h-.842l-.815-1.835h-3.776l-.825,1.835h-.8l3.164-6.991h.734Zm-3.539-6.068-1.589,3.54h3.165Z" transform="translate(-2155.08 -1060.626)" fill="#e20060"/>
          <path id="Path_17" data-name="Path 17" d="M2272.609,1062.267a.871.871,0,0,0,.288.362,2.107,2.107,0,0,0,.575.3,7.221,7.221,0,0,0,.943.254,4.105,4.105,0,0,1,1.711.713,1.565,1.565,0,0,1,.551,1.264,1.827,1.827,0,0,1-.663,1.44,2.161,2.161,0,0,1-.747.4,3.065,3.065,0,0,1-.954.139,4.159,4.159,0,0,1-1.521-.267,4.345,4.345,0,0,1-1.315-.832l.487-.575a4.151,4.151,0,0,0,1.1.737,3.146,3.146,0,0,0,1.278.243,1.777,1.777,0,0,0,1.126-.328,1.046,1.046,0,0,0,.422-.866,1.12,1.12,0,0,0-.081-.44.872.872,0,0,0-.277-.355,2.062,2.062,0,0,0-.551-.287,7.1,7.1,0,0,0-.9-.247,7.673,7.673,0,0,1-1.041-.3,2.653,2.653,0,0,1-.73-.409,1.477,1.477,0,0,1-.426-.554,1.857,1.857,0,0,1-.139-.757,1.7,1.7,0,0,1,.169-.764,1.78,1.78,0,0,1,.474-.6,2.282,2.282,0,0,1,.723-.4,2.748,2.748,0,0,1,.913-.145,3.9,3.9,0,0,1,1.335.21,4.16,4.16,0,0,1,1.106.632l-.457.605a3.384,3.384,0,0,0-.977-.575,3,3,0,0,0-1.024-.179,1.918,1.918,0,0,0-.612.091,1.592,1.592,0,0,0-.467.237,1.077,1.077,0,0,0-.3.358,1.011,1.011,0,0,0-.1.446A1.2,1.2,0,0,0,2272.609,1062.267Z" transform="translate(-2248.857 -1059.992)" fill="#e20060"/>
          <path id="Path_18" data-name="Path 18" d="M2386.647,1068.261h-.784v-6.217h-2.329v-.727h5.443v.727h-2.329Z" transform="translate(-2352.627 -1061.219)" fill="#e20060"/>
          <path id="Path_19" data-name="Path 19" d="M2471.181,1065.137v3.124h-.784v-6.944h.784v3.087h4.006v-3.087h.784v6.944h-.784v-3.124Z" transform="translate(-2433.067 -1061.219)" fill="#e20060"/>
          <path id="Path_20" data-name="Path 20" d="M2564.643,1067.668h-.842l-.814-1.835h-3.777l-.824,1.835h-.8l3.165-6.991h.733Zm-3.539-6.068-1.589,3.54h3.164Z" transform="translate(-2513.804 -1060.626)" fill="#e20060"/>
          <path id="Path_21" data-name="Path 21" d="M2661.321,1068.261h-.784v-6.217h-2.329v-.727h5.443v.727h-2.329Z" transform="translate(-2606.99 -1061.219)" fill="#e20060"/>
          <path id="Path_22" data-name="Path 22" d="M2780.327,1061.317v6.944h-.784v-6.944Z" transform="translate(-2719.354 -1061.219)" fill="#e20060"/>
          <path id="Path_23" data-name="Path 23" d="M2816.014,1061.317h.764v6.944h-.625l-4.483-5.693v5.693h-.764v-6.944h.737l4.371,5.565Z" transform="translate(-2748.397 -1061.219)" fill="#e20060"/>
          <path id="Path_24" data-name="Path 24" d="M2905.258,1062.267a.867.867,0,0,0,.287.362,2.119,2.119,0,0,0,.574.3,7.285,7.285,0,0,0,.944.254,4.1,4.1,0,0,1,1.711.713,1.565,1.565,0,0,1,.551,1.264,1.9,1.9,0,0,1-.176.815,1.875,1.875,0,0,1-.487.626,2.164,2.164,0,0,1-.747.4,3.063,3.063,0,0,1-.953.139,4.159,4.159,0,0,1-1.522-.267,4.345,4.345,0,0,1-1.315-.832l.487-.575a4.152,4.152,0,0,0,1.1.737,3.144,3.144,0,0,0,1.278.243,1.776,1.776,0,0,0,1.125-.328,1.046,1.046,0,0,0,.423-.866,1.12,1.12,0,0,0-.082-.44.873.873,0,0,0-.277-.355,2.068,2.068,0,0,0-.552-.287,7.091,7.091,0,0,0-.9-.247,7.714,7.714,0,0,1-1.041-.3,2.676,2.676,0,0,1-.73-.409,1.482,1.482,0,0,1-.426-.554,1.861,1.861,0,0,1-.139-.757,1.693,1.693,0,0,1,.169-.764,1.77,1.77,0,0,1,.473-.6,2.287,2.287,0,0,1,.724-.4,2.743,2.743,0,0,1,.912-.145,3.9,3.9,0,0,1,1.335.21,4.161,4.161,0,0,1,1.105.632l-.456.605a3.4,3.4,0,0,0-.977-.575,3,3,0,0,0-1.025-.179,1.923,1.923,0,0,0-.612.091,1.6,1.6,0,0,0-.467.237,1.071,1.071,0,0,0-.3.358,1,1,0,0,0-.1.446A1.188,1.188,0,0,0,2905.258,1062.267Z" transform="translate(-2834.723 -1059.992)" fill="#e20060"/>
          <path id="Path_25" data-name="Path 25" d="M2994.277,1064.522a2.076,2.076,0,0,1-.588.713,2.554,2.554,0,0,1-.869.433,3.817,3.817,0,0,1-1.051.142h-1.687v2.451h-.784v-6.944h2.6a3.509,3.509,0,0,1,1.065.156,2.423,2.423,0,0,1,.824.436,1.887,1.887,0,0,1,.524.693,2.222,2.222,0,0,1,.186.93A2.148,2.148,0,0,1,2994.277,1064.522Zm-1.078-2.1a2.191,2.191,0,0,0-1.355-.382h-1.761v3.053h1.72a2.708,2.708,0,0,0,.781-.108,1.775,1.775,0,0,0,.605-.314,1.372,1.372,0,0,0,.389-.484,1.438,1.438,0,0,0,.135-.632A1.322,1.322,0,0,0,2993.2,1062.426Z" transform="translate(-2913.598 -1061.219)" fill="#e20060"/>
          <path id="Path_26" data-name="Path 26" d="M3073.929,1061.317v6.944h-.784v-6.944Z" transform="translate(-2991.245 -1061.219)" fill="#e20060"/>
          <path id="Path_27" data-name="Path 27" d="M3109.288,1068.261l-2.012-2.7h-1.984v2.7h-.785v-6.944h2.986a3.409,3.409,0,0,1,1.038.149,2.336,2.336,0,0,1,.788.423,1.879,1.879,0,0,1,.507.656,1.989,1.989,0,0,1,.179.848,2.071,2.071,0,0,1-.139.778,1.758,1.758,0,0,1-.392.6,2.167,2.167,0,0,1-.6.422,2.847,2.847,0,0,1-.754.24l2.133,2.833Zm-.535-5.855a2.09,2.09,0,0,0-1.315-.362h-2.146v2.826h2.14a2.388,2.388,0,0,0,.713-.1,1.653,1.653,0,0,0,.568-.284,1.272,1.272,0,0,0,.372-.453,1.307,1.307,0,0,0,.135-.605A1.219,1.219,0,0,0,3108.753,1062.406Z" transform="translate(-3020.287 -1061.219)" fill="#e20060"/>
          <path id="Path_28" data-name="Path 28" d="M3199.821,1062.034h-4.236v2.37h3.79v.713h-3.79v2.431h4.287v.713H3194.8v-6.944h5.02Z" transform="translate(-3103.905 -1061.219)" fill="#e20060"/>
        </g>
      </g>
    </g>
  </g>
</svg>
