<svg xmlns="http://www.w3.org/2000/svg" width="44.799" height="31.624" viewBox="0 0 44.799 31.624">
  <g id="Quote_Pattern" data-name="Quote Pattern" transform="translate(-0.001 31.912)">
    <path id="Shape" d="M9.935,0A9.945,9.945,0,0,1,0-9.935a9.948,9.948,0,0,1,9.358-9.919c.09-.974.023-3.626-2.518-7.314a.7.7,0,0,1,.081-.892c1.04-1.04,1.682-1.695,2.132-2.153.589-.6.857-.872,1.25-1.229a.7.7,0,0,1,.47-.182.7.7,0,0,1,.459.172A26.828,26.828,0,0,1,19.868-9.884C19.451-4.157,15.274,0,9.935,0Z" transform="translate(0.001 -0.288)" fill="#008ccf"/>
    <path id="Shape-2" data-name="Shape" d="M19.869-9.884h0C19.451-4.157,15.273,0,9.935,0A9.946,9.946,0,0,1,0-9.935a9.948,9.948,0,0,1,9.36-9.919c.09-.973.022-3.624-2.52-7.314a.7.7,0,0,1,.081-.892C7.957-29.1,8.6-29.749,9.048-30.207c.591-.6.861-.878,1.256-1.236a.7.7,0,0,1,.47-.181.7.7,0,0,1,.459.172A26.83,26.83,0,0,1,19.869-9.884Z" transform="translate(24.861 -0.288)" fill="#008ccf"/>
  </g>
</svg>
